<?xml version="1.0" encoding="UTF-8"?>
<svg id="Layer_2" data-name="Layer 2" xmlns="http://www.w3.org/2000/svg" viewBox="0 0 84.25 128.55">
  <defs>
    <style>
      .cls-1 {
        fill: #e7f6fd;
      }

      .cls-2 {
        fill: #fff;
      }

      .cls-3 {
        fill: #ff3de3;
      }

      .cls-4, .cls-5 {
        fill: #272428;
      }

      .cls-5 {
        stroke: #000;
        stroke-miterlimit: 10;
        stroke-width: .5px;
      }
    </style>
  </defs>
  <g id="Layer_1-2" data-name="Layer 1">
    <g>
      <g>
        <g>
          <path class="cls-1" d="M75.68,121.81l-10.71-51.35c-.49-2.56-.33-5.22,.47-7.76l12.28-38.8-10.09-1.09-10.24-2.57-11.95,37.75c-.78,2.47-2.17,4.75-4.04,6.65L3.2,102.42c-2.9,2.96-1.42,7.59,2.71,8.63l30.8,9.17,31.38,7.86c4.27,1.1,8.34-2.29,7.58-6.27Z"/>
          <path class="cls-5" d="M68.02,128.07L5.27,112.35c-2.3-.58-4.07-2.17-4.74-4.24-.68-2.08-.08-4.29,1.52-5.93L41.2,63.45c1.81-1.85,3.17-4.1,3.92-6.48l12.52-39.55,21.35,5.35-12.5,39.49c-.75,2.37-.91,4.93-.43,7.39l10.69,51.18c.4,2.14-.39,4.31-2.19,5.79-1.8,1.49-4.24,2.03-6.54,1.45ZM58.95,19.2l-12.06,38.1c-.83,2.63-2.35,5.13-4.37,7.16L3.16,103.39c-1.17,1.19-1.59,2.84-1.11,4.41,.49,1.54,1.78,2.72,3.49,3.15l63.07,15.8c1.71,.43,3.5,.02,4.83-1.07,1.32-1.09,1.94-2.69,1.61-4.29l-10.75-51.45c-.52-2.71-.35-5.54,.49-8.17l12.06-38.1-17.91-4.49Z"/>
        </g>
        <path class="cls-3" d="M68.79,119.01l-5.71-28.19-31.2-8-21.63,21.18c-.65,.68-.9,1.55-.62,2.41,.28,.86,.97,1.49,1.91,1.73l53.69,13.76c.94,.24,1.9,.04,2.65-.56,.75-.6,1.08-1.44,.91-2.33Z"/>
        <g>
          <path class="cls-1" d="M78.37,21.18l-19.1-4.78c-2.01-.5-4.13,.58-4.71,2.42h0c-.58,1.84,.59,3.74,2.6,4.25l19.1,4.78c2.01,.5,4.13-.58,4.71-2.42h0c.59-1.86-.59-3.74-2.6-4.25Z"/>
          <path class="cls-4" d="M77.44,28.87l-21.95-5.5c-2.81-.7-4.46-3.36-3.64-5.96s3.76-4.1,6.6-3.39l21.95,5.5c2.81,.7,4.46,3.36,3.64,5.96-.82,2.6-3.79,4.1-6.6,3.39Zm-18.62-11.87c-1.59-.4-3.3,.46-3.76,1.93s.46,2.99,2.08,3.4l19.59,4.91c1.59,.4,3.3-.46,3.76-1.93s-.46-2.99-2.08-3.4l-19.59-4.91Z"/>
        </g>
      </g>
      <ellipse class="cls-1" cx="46.64" cy="97.91" rx="2.37" ry="2.61" transform="translate(-60.11 117.05) rotate(-74.7)"/>
      <ellipse class="cls-2" cx="50.27" cy="108.1" rx="2.21" ry="2.43" transform="translate(-67.27 128.06) rotate(-74.7)"/>
      <ellipse class="cls-1" cx="28.74" cy="99.22" rx="5.37" ry="5.91" transform="translate(-74.55 100.75) rotate(-74.7)"/>
      <ellipse class="cls-2" cx="39.52" cy="107.62" rx="1.86" ry="2.05" transform="translate(-74.71 117.33) rotate(-74.7)"/>
      <ellipse class="cls-1" cx="39.13" cy="89.22" rx="2.77" ry="3.05" transform="translate(-57.25 103.42) rotate(-74.7)"/>
      <path d="M58.14,29.89h.21c.33,0,.59,.27,.59,.59v4.39c0,.33-.27,.59-.59,.59h-.21c-.33,0-.59-.27-.59-.59v-4.39c0-.33,.27-.59,.59-.59Z" transform="translate(11.53 80.42) rotate(-74.92)"/>
      <path d="M57.05,33.94h.21c.33,0,.59,.27,.59,.59v4.39c0,.33-.27,.59-.59,.59h-.21c-.33,0-.59-.27-.59-.59v-4.4c0-.33,.27-.59,.59-.59Z" transform="translate(6.82 82.36) rotate(-74.92)"/>
      <path d="M55.97,37.99h.21c.33,0,.59,.27,.59,.59v4.39c0,.33-.27,.59-.59,.59h-.21c-.33,0-.59-.27-.59-.59v-4.39c0-.33,.27-.59,.59-.59Z" transform="translate(2.1 84.31) rotate(-74.92)"/>
      <path d="M54.88,42.04h.21c.33,0,.59,.27,.59,.59v4.39c0,.33-.27,.59-.59,.59h-.21c-.33,0-.59-.27-.59-.59v-4.39c0-.33,.27-.59,.59-.59Z" transform="translate(-2.61 86.25) rotate(-74.92)"/>
      <path class="cls-3" d="M79.85,13.65c0,.62-.24,1.22-.68,1.65-.44,.44-1.03,.69-1.65,.69-.62,0-1.21-.24-1.65-.68-.44-.44-.69-1.03-.69-1.65,0-.62,.24-1.22,.68-1.65,.44-.44,1.03-.69,1.65-.69,.62,0,1.21,.25,1.65,.68,.44,.44,.69,1.03,.69,1.65Zm-13.22-9.92c0,.99-.39,1.94-1.09,2.64-.7,.7-1.64,1.09-2.63,1.09-.99,0-1.94-.39-2.63-1.09-.7-.7-1.09-1.65-1.09-2.64,0-.99,.39-1.94,1.09-2.64,.7-.7,1.65-1.09,2.63-1.09,.99,0,1.93,.39,2.63,1.09,.7,.7,1.09,1.65,1.09,2.63h0Zm-1.75-2.19h0c-.46-.58-1.16-.92-1.9-.92-.35,0-.64,.29-.64,.64,0,.35,.29,.64,.64,.64,.35,0,.68,.15,.9,.43,.12,.16,.3,.25,.5,.25,.15,0,.29-.05,.4-.14,.13-.11,.22-.26,.24-.43s-.03-.34-.14-.47h0Zm10.45,6.26h0c0,.76-.3,1.5-.84,2.04-.54,.54-1.27,.84-2.03,.84-.76,0-1.5-.3-2.03-.85-.54-.54-.84-1.28-.84-2.04,0-.76,.31-1.5,.85-2.04s1.27-.84,2.04-.84c.76,0,1.49,.31,2.03,.84,.54,.54,.84,1.27,.84,2.03h0Zm-1.5-.8h0c-.28-.49-.8-.79-1.36-.79-.36,0-.64,.29-.64,.64s.29,.64,.64,.64c.11,0,.2,.06,.26,.15,.11,.2,.33,.31,.55,.31,.11,0,.22-.03,.32-.08,.31-.18,.41-.58,.23-.89h0Zm8.01,3.14h0c-.2,0-.39,.08-.53,.22-.14,.14-.22,.33-.22,.53s.08,.39,.22,.54c.14,.14,.33,.22,.53,.22s.39-.08,.53-.22,.22-.33,.22-.53-.08-.39-.22-.54-.33-.22-.53-.22h0Zm-7.47-7.26c.17,0,.32-.1,.38-.26,.06-.16,.03-.33-.09-.45-.12-.12-.3-.15-.45-.09-.15,.06-.26,.22-.26,.38,0,.23,.19,.42,.41,.42Zm-2.45-.83c.26,0,.5-.16,.61-.4,.1-.24,.05-.53-.14-.71-.19-.19-.47-.24-.71-.14-.24,.1-.4,.34-.4,.61,0,.17,.07,.34,.19,.46s.29,.19,.46,.19h0Zm.53,10.44c-.22,0-.42,.13-.5,.34s-.04,.44,.12,.59c.16,.16,.39,.2,.59,.12s.34-.28,.34-.5c0-.14-.06-.28-.16-.38-.1-.1-.24-.16-.38-.16h0Z"/>
      <path class="cls-3" d="M46.18,75.31c0,.72-.28,1.41-.79,1.92-.51,.51-1.2,.8-1.92,.8-.72,0-1.41-.28-1.92-.79-.51-.51-.8-1.2-.8-1.92,0-.72,.28-1.41,.79-1.92,.51-.51,1.2-.8,1.92-.8,.72,0,1.41,.29,1.92,.79,.51,.51,.8,1.2,.8,1.92Zm11.37-4.9c-.03,.93-.42,1.82-1.1,2.46-.68,.64-1.58,.99-2.51,.96-.93-.03-1.81-.42-2.46-1.1-.64-.68-.99-1.58-.96-2.52,.03-.93,.42-1.82,1.1-2.46,.68-.64,1.58-.99,2.51-.96,.93,.03,1.81,.42,2.45,1.1,.64,.68,.99,1.58,.96,2.51h0Zm-1.59-2.11h0c-.42-.56-1.07-.9-1.77-.92-.33,0-.61,.25-.62,.59,0,.33,.26,.61,.59,.63,.33,0,.64,.16,.84,.43,.11,.15,.28,.24,.47,.24,.14,0,.27-.04,.38-.12,.13-.1,.22-.24,.24-.4s-.02-.32-.12-.45h0Zm-1.12,13.78h0c.24,.24,.38,.57,.38,.91,0,.34-.13,.67-.37,.91-.24,.24-.57,.38-.9,.37-.34,0-.66-.14-.9-.38-.24-.24-.37-.57-.37-.91s.14-.67,.38-.9c.24-.24,.56-.37,.9-.37,.34,0,.66,.14,.9,.37h0Zm-.72,.22h0c-.24-.06-.5,0-.68,.18-.11,.11-.11,.29,0,.41s.29,.11,.4,0c.04-.03,.08-.04,.13-.03,.1,.03,.2,0,.27-.08,.03-.04,.06-.08,.08-.13,.04-.15-.05-.31-.21-.35h0Zm4.58-3.82h0c-.16,.16-.26,.39-.26,.62,0,.23,.09,.46,.26,.62s.39,.26,.62,.26c.23,0,.46-.09,.62-.26s.26-.39,.26-.62-.09-.46-.26-.62-.39-.26-.62-.26-.46,.09-.62,.26h0Zm-7.22,1.81c.14-.14,.18-.34,.1-.52-.07-.18-.25-.3-.44-.3-.19,0-.37,.12-.44,.3-.07,.18-.03,.39,.1,.53,.19,.19,.49,.19,.68,0Zm-2.7,1.33c.22-.22,.28-.54,.17-.83-.12-.28-.39-.47-.7-.47-.31,0-.58,.18-.7,.47-.12,.28-.05,.61,.16,.83,.14,.14,.34,.22,.54,.22s.39-.08,.54-.22h0Zm8.99,4.88c-.18,.18-.23,.45-.14,.69s.33,.39,.58,.39c.25,0,.48-.15,.58-.39s.04-.51-.14-.69c-.12-.12-.28-.19-.45-.19-.17,0-.33,.07-.45,.18h0Z"/>
    </g>
  </g>
</svg>