<?xml version="1.0" encoding="UTF-8"?>
<svg id="Layer_1" data-name="Layer 1" xmlns="http://www.w3.org/2000/svg" viewBox="0 0 2272.82 1665.75">
  <defs>
    <style>
      .cls-1 {
        fill: #e6f6fd;
      }

      .cls-2, .cls-3, .cls-4, .cls-5, .cls-6, .cls-7 {
        isolation: isolate;
      }

      .cls-2, .cls-3, .cls-7 {
        opacity: .3;
      }

      .cls-2, .cls-4 {
        fill: #fe3de3;
      }

      .cls-3, .cls-5 {
        fill: #5e2caf;
      }

      .cls-4, .cls-5, .cls-6 {
        opacity: .35;
      }

      .cls-6 {
        fill: #22fe14;
      }
    </style>
  </defs>
  <path class="cls-1" d="M2272.82,0V909.03l-434.66,53.52-6.04,.72c-57.13,6.8-152.8,18.17-266.8,18.17-92.97,0-182.03-7.77-264.69-23.09-112.18-20.53-214.13-55.07-304.09-85.53-68.2-23.1-132.61-44.91-182.62-54.02l-1.43-.26c-30.17-5.61-65.49-8.45-104.99-8.45-61.89,0-120.33,6.95-163.01,12.02l-5.26,.63L0,889.13V0H2272.82Z"/>
  <path class="cls-6" d="M64,1325.05c-2.98-11.93,13.67-39.63,25.61-42.61,11.93-2.98,39.63,13.67,42.61,25.61,2.98,11.93-13.67,39.63-25.61,42.61-11.93,2.98-39.63-13.67-42.61-25.61"/>
  <path class="cls-4" d="M99.14,1632.53c-4.55-18.25,6.22-36.19,24.49-40.74s36.19,6.22,40.74,24.49c4.55,18.25-6.22,36.19-24.49,40.74-18.27,4.55-36.19-6.22-40.74-24.49"/>
  <path class="cls-3" d="M2075.22,1272.49c8.23,12.79,4.8,28.64-8,36.87s-28.64,4.8-36.87-8c-8.23-12.79-4.8-28.64,8-36.87s28.64-4.8,36.87,8"/>
  <path class="cls-6" d="M120.62,1473.06c15.91-7.75,28.66-3.37,36.41,12.54,7.75,15.91,3.37,28.66-12.54,36.41-15.91,7.75-28.66,3.37-36.41-12.54-7.75-15.91-3.37-28.66,12.54-36.41"/>
  <path class="cls-6" d="M1732.46,1407.2c11.46-5.06,42.11,6.87,47.17,18.33,5.06,11.46-6.87,42.11-18.33,47.17s-42.11-6.87-47.17-18.33c-5.06-11.46,6.87-42.11,18.33-47.17"/>
  <path class="cls-2" d="M1818.42,1295.08c2.46,5.58-9.29,35.8-14.86,38.24-5.58,2.45-35.8-9.29-38.24-14.86-2.45-5.58,9.29-35.8,14.86-38.24,5.58-2.45,35.8,9.29,38.24,14.86"/>
  <path class="cls-7" d="M243.69,1406.71l-43.51-30.48,30.48-43.51,43.51,30.48-30.48,43.51"/>
  <path class="cls-3" d="M239.85,1241.5c-7-15.82,.17-32.8,16.66-39.52,16.49-6.72,34.26,.15,41.26,15.97,7,15.82-.17,32.8-16.66,39.52-16.51,6.72-34.26-.15-41.26-15.97"/>
  <path class="cls-6" d="M96.84,1185.39c-2.98-11.93,13.67-39.63,25.61-42.61,11.94-2.98,39.63,13.67,42.61,25.61s-13.67,39.63-25.61,42.61c-11.93,2.98-39.63-13.67-42.61-25.61"/>
  <path class="cls-7" d="M1898.24,1346.53l48.92,23.05-23.05,48.92-48.92-23.05,23.05-48.92"/>
  <path class="cls-5" d="M1801.15,1564.65c5.77,4.56,10.31,43.46,5.75,49.24-4.56,5.77-43.46,10.31-49.24,5.75-5.77-4.56-10.31-43.46-5.75-49.24,4.56-5.78,43.46-10.31,49.24-5.75"/>
  <path class="cls-6" d="M332.58,1540.5c-2.98-11.93,13.67-39.63,25.61-42.61,11.94-2.98,39.63,13.67,42.61,25.61,2.98,11.94-13.67,39.63-25.61,42.61-11.93,2.98-39.63-13.67-42.61-25.61"/>
  <path class="cls-6" d="M1902.89,1454.4c9.63-8,42.39-4.93,50.38,4.71s4.93,42.39-4.71,50.38-42.39,4.93-50.38-4.71c-8-9.63-4.93-42.39,4.71-50.38"/>
  <path class="cls-2" d="M2132.03,1512.67c2.3,10.14-18.89,43.73-29.03,46.04s-43.73-18.89-46.04-29.03c-2.3-10.14,18.89-43.73,29.03-46.04,10.14-2.3,43.73,18.89,46.04,29.03"/>
  <path class="cls-2" d="M392.3,1188.54c-.58-11.08,27.82-42.63,38.9-43.21,11.08-.58,42.63,27.82,43.21,38.9,.58,11.08-27.82,42.63-38.9,43.21-11.08,.58-42.63-27.82-43.21-38.9"/>
  <path class="cls-3" d="M1977.75,1624.42c8.23,12.79,4.8,28.64-8,36.87s-28.64,4.8-36.87-8c-8.23-12.79-4.8-28.64,8-36.87,12.79-8.23,28.64-4.8,36.87,8"/>
</svg>