<?xml version="1.0" encoding="UTF-8"?>
<svg id="Layer_1" data-name="Layer 1" xmlns="http://www.w3.org/2000/svg" viewBox="0 0 389 110">
  <defs>
    <style>
      .cls-1 {
        fill: #e7f6fd;
      }

      .cls-2 {
        fill: #fff;
      }

      .cls-3 {
        fill: #ff3de3;
      }

      .cls-4 {
        stroke-width: 2px;
      }

      .cls-4, .cls-5 {
        fill: #272428;
        stroke: #000;
        stroke-miterlimit: 10;
      }

      .cls-6 {
        font-family: VDL-V7Gothic-ExtraBold-83pv-RKSJ-H, VDL-V7Gothic;
        font-size: 63.26px;
        font-weight: 700;
      }
    </style>
  </defs>
  <text class="cls-6" transform="translate(77.54 89.84) scale(1.1 1)"><tspan x="0" y="0">Distilled</tspan><tspan class="cls-3" x="254.42" y="0">.</tspan></text>
  <g>
    <g>
      <g>
        <path class="cls-1" d="M62.78,96.97l-7.72-36.74c-.35-1.83-.24-3.74,.33-5.55l8.77-27.78-7.24-.77-7.34-1.83-8.54,27.02c-.56,1.76-1.55,3.4-2.89,4.76l-27.35,27.06c-2.08,2.12-1.01,5.44,1.95,6.17l22.08,6.54,22.5,5.6c3.06,.79,5.98-1.65,5.43-4.49Z"/>
        <path class="cls-4" d="M57.29,101.46l-44.99-11.2c-1.65-.41-2.92-1.55-3.4-3.03-.49-1.48-.06-3.07,1.08-4.24l28.03-27.74c1.3-1.32,2.27-2.94,2.81-4.64l8.94-28.31,15.31,3.81-8.93,28.27c-.54,1.7-.65,3.53-.3,5.28l7.7,36.62c.29,1.53-.28,3.08-1.57,4.15-1.29,1.07-3.04,1.45-4.69,1.04Zm-6.58-77.9l-8.62,27.28c-.6,1.88-1.68,3.67-3.12,5.13l-28.18,27.89c-.84,.85-1.13,2.03-.79,3.16,.35,1.1,1.28,1.95,2.5,2.25l45.22,11.26c1.23,.31,2.51,.01,3.46-.77,.95-.78,1.39-1.92,1.15-3.07l-7.74-36.81c-.37-1.94-.25-3.96,.34-5.85l8.62-27.28-12.84-3.2Z"/>
      </g>
      <path class="cls-3" d="M57.84,94.97l-4.11-20.17-22.36-5.7-15.49,15.17c-.47,.49-.64,1.11-.44,1.72,.2,.62,.7,1.07,1.37,1.24l38.49,9.8c.68,.17,1.36,.02,1.9-.4,.54-.43,.78-1.03,.65-1.67Z"/>
      <g>
        <path class="cls-1" d="M64.63,24.96l-13.69-3.41c-1.44-.36-2.96,.42-3.37,1.73h0c-.42,1.31,.42,2.68,1.86,3.04l13.69,3.41c1.44,.36,2.96-.42,3.37-1.73h0c.42-1.33-.42-2.68-1.86-3.04Z"/>
        <path class="cls-5" d="M63.97,30.47l-15.73-3.92c-2.01-.5-3.2-2.4-2.62-4.26s2.69-2.94,4.73-2.43l15.73,3.92c2.01,.5,3.2,2.4,2.62,4.26s-2.71,2.93-4.73,2.43Zm-13.35-8.48c-1.14-.28-2.36,.33-2.7,1.39s.33,2.14,1.49,2.43l14.04,3.5c1.14,.28,2.36-.33,2.7-1.39s-.33-2.14-1.49-2.43l-14.04-3.5Z"/>
      </g>
    </g>
    <ellipse class="cls-1" cx="41.95" cy="79.89" rx="1.69" ry="1.87" transform="translate(-46.08 99.73) rotate(-75)"/>
    <ellipse class="cls-2" cx="44.56" cy="87.18" rx="1.58" ry="1.74" transform="translate(-51.19 107.65) rotate(-75)"/>
    <ellipse class="cls-1" cx="29.12" cy="80.84" rx="3.84" ry="4.23" transform="translate(-56.51 88.04) rotate(-75)"/>
    <ellipse class="cls-2" cx="36.85" cy="86.84" rx="1.33" ry="1.47" transform="translate(-56.57 99.96) rotate(-75)"/>
    <ellipse class="cls-1" cx="36.56" cy="73.68" rx="1.98" ry="2.19" transform="translate(-44.07 89.92) rotate(-75)"/>
    <rect x="48.22" y="32.71" width="4" height="1" rx=".38" ry=".38" transform="translate(10.31 -11.87) rotate(15)"/>
    <rect x="47.44" y="35.61" width="4" height="1" rx=".38" ry=".38" transform="translate(11.03 -11.57) rotate(15)"/>
    <rect x="46.66" y="38.5" width="4" height="1" rx=".38" ry=".38" transform="translate(11.75 -11.27) rotate(15)"/>
    <rect x="45.89" y="41.4" width="4" height="1" rx=".38" ry=".38" transform="translate(12.48 -10.97) rotate(15)"/>
    <path class="cls-3" d="M65.69,19.57c0,.44-.17,.87-.49,1.18-.31,.31-.74,.49-1.18,.49-.44,0-.87-.17-1.18-.49-.31-.31-.49-.74-.49-1.18,0-.44,.17-.87,.49-1.18,.31-.31,.74-.49,1.18-.49,.44,0,.87,.18,1.18,.49,.31,.31,.49,.74,.49,1.18Zm-9.48-7.09c0,.71-.28,1.39-.78,1.89-.5,.5-1.18,.78-1.89,.79-.71,0-1.39-.28-1.89-.78-.5-.5-.78-1.18-.79-1.89,0-.71,.28-1.39,.78-1.89,.5-.5,1.18-.78,1.89-.79,.71,0,1.39,.28,1.89,.78,.5,.5,.78,1.18,.79,1.88h0Zm-1.25-1.57h0c-.33-.41-.83-.66-1.36-.65-.25,0-.46,.21-.46,.46,0,.25,.21,.46,.46,.46,.25,0,.49,.11,.65,.3,.08,.11,.22,.18,.36,.18,.1,0,.21-.03,.29-.1,.1-.08,.16-.19,.17-.31s-.02-.24-.1-.34h0Zm7.5,4.47h0c0,.55-.22,1.07-.6,1.46-.39,.39-.91,.61-1.46,.61-.55,0-1.07-.22-1.46-.6-.39-.39-.6-.91-.6-1.46,0-.55,.22-1.07,.61-1.46s.91-.6,1.46-.6c.55,0,1.07,.22,1.45,.6,.39,.39,.6,.91,.6,1.45h0Zm-1.08-.57h0c-.2-.35-.57-.56-.98-.56-.25,0-.46,.21-.46,.46s.21,.46,.46,.46c.08,0,.15,.05,.18,.11,.08,.14,.23,.22,.4,.22,.08,0,.16-.02,.23-.06,.22-.13,.3-.41,.17-.64h0Zm5.75,2.24h0c-.14,0-.28,.06-.38,.16-.1,.1-.16,.24-.16,.38s.06,.28,.16,.38c.1,.1,.24,.16,.38,.16s.28-.06,.38-.16,.16-.24,.16-.38-.06-.28-.16-.38-.24-.16-.38-.16h0Zm-5.36-5.19c.12,0,.23-.07,.27-.18,.05-.11,.02-.24-.06-.32-.08-.09-.21-.11-.32-.06-.11,.05-.18,.15-.18,.27,0,.16,.13,.3,.3,.3Zm-1.76-.59c.19,0,.36-.11,.43-.29,.07-.18,.03-.38-.1-.51-.13-.13-.34-.17-.51-.1-.18,.07-.29,.24-.29,.43,0,.12,.05,.24,.14,.33s.21,.14,.33,.14h0Zm.39,7.47c-.16,0-.3,.09-.36,.24s-.03,.31,.08,.42c.11,.11,.28,.14,.42,.08s.24-.2,.24-.36c0-.1-.04-.2-.11-.28-.07-.07-.17-.11-.28-.11h0Z"/>
    <path class="cls-3" d="M42.99,62.87c0,.44-.17,.87-.49,1.18-.31,.31-.74,.49-1.18,.49-.44,0-.87-.17-1.18-.49-.31-.31-.49-.74-.49-1.18,0-.44,.17-.87,.49-1.18,.31-.31,.74-.49,1.18-.49,.44,0,.87,.18,1.18,.49,.31,.31,.49,.74,.49,1.18Zm7.02-3.03c-.02,.58-.26,1.12-.68,1.52-.42,.4-.97,.61-1.55,.59-.58-.02-1.12-.26-1.52-.68-.4-.42-.61-.98-.59-1.55,.02-.58,.26-1.12,.68-1.52,.42-.4,.98-.61,1.55-.59,.57,.02,1.12,.26,1.52,.68,.4,.42,.61,.97,.6,1.55h0Zm-.98-1.3h0c-.26-.34-.66-.55-1.09-.56-.21,0-.38,.16-.39,.36,0,.21,.16,.38,.36,.39,.2,0,.39,.1,.52,.26,.07,.09,.17,.15,.29,.15,.08,0,.17-.02,.23-.08,.08-.06,.13-.15,.15-.25s-.01-.2-.07-.28h0Zm-.68,8.5h0c.15,.15,.23,.35,.23,.56,0,.21-.08,.41-.23,.56-.15,.15-.35,.23-.56,.23-.21,0-.41-.08-.56-.23-.15-.15-.23-.35-.23-.56s.08-.41,.23-.56c.15-.15,.35-.23,.56-.23,.21,0,.41,.08,.56,.23h0Zm-.45,.14h0c-.15-.04-.31,0-.42,.11-.07,.07-.07,.18,0,.25s.18,.07,.25,0c.02-.02,.05-.03,.08-.02,.06,.02,.12,0,.17-.05,.02-.02,.04-.05,.05-.08,.02-.1-.03-.19-.13-.22h0Zm2.83-2.36h0c-.1,.1-.16,.24-.16,.38,0,.14,.06,.28,.16,.38s.24,.16,.38,.16c.14,0,.28-.06,.38-.16s.16-.24,.16-.38-.06-.28-.16-.38-.24-.16-.38-.16-.28,.06-.38,.16h0Zm-4.46,1.12c.08-.08,.11-.21,.06-.32-.05-.11-.15-.18-.27-.18-.12,0-.23,.07-.27,.18-.05,.11-.02,.24,.06,.32,.12,.12,.3,.12,.42,0Zm-1.66,.82c.13-.13,.17-.34,.1-.51-.07-.18-.24-.29-.43-.29-.19,0-.36,.11-.43,.29-.07,.18-.03,.38,.1,.51,.09,.09,.21,.14,.33,.14s.24-.05,.33-.14h0Zm5.55,3c-.11,.11-.14,.28-.08,.42s.2,.24,.36,.24c.16,0,.3-.09,.36-.24s.03-.31-.08-.42c-.07-.07-.17-.11-.28-.11-.1,0-.2,.04-.28,.11h0Z"/>
  </g>
</svg>