<?xml version="1.0" encoding="UTF-8"?>
<svg id="Layer_1" data-name="Layer 1" xmlns="http://www.w3.org/2000/svg" viewBox="0 0 400.5 106">
  <defs>
    <style>
      .cls-1 {
        fill: #e7f6fd;
      }

      .cls-2 {
        fill: #fff;
      }

      .cls-3 {
        fill: #ff3de3;
      }

      .cls-4 {
        fill: #272428;
      }

      .cls-5 {
        font-family: VDL-V7Gothic-ExtraBold-83pv-RKSJ-H, VDL-V7Gothic;
        font-size: 63.26px;
        font-weight: 700;
      }
    </style>
  </defs>
  <g>
    <g>
      <path class="cls-1" d="M61.88,93.4l-5.12-37.1c-.22-1.85,.02-3.74,.72-5.5l10.67-27.04-6.87-2.23-6.9-2.24-10.67,27.04c-.7,1.77-1.83,3.37-3.3,4.67l-29.91,25.73c-2.28,2.02-1.42,5.49,1.55,6.46l22.07,7.16,22.05,7.15c2.99,1,6.06-1.22,5.72-4.1Z"/>
      <path class="cls-4" d="M55.94,98.07l-44.12-14.32c-1.62-.53-2.8-1.75-3.18-3.26-.38-1.52,.15-3.07,1.38-4.16l29.91-25.73c1.38-1.23,2.47-2.77,3.12-4.43l10.9-27.63,15.01,4.87-10.88,27.59c-.65,1.66-.9,3.48-.67,5.25l5.13,37.08c.18,1.55-.49,3.06-1.85,4.03-1.36,.97-3.13,1.24-4.75,.71Zm-1.18-78.01l-10.45,26.48c-.72,1.83-1.92,3.53-3.46,4.88l-29.91,25.73c-.89,.79-1.27,1.94-1,3.08,.27,1.12,1.13,2.02,2.33,2.41l44.12,14.32c1.2,.39,2.49,.19,3.49-.52,.99-.71,1.51-1.81,1.36-2.97l-5.13-37.08c-.24-1.95,.02-3.95,.75-5.78l10.45-26.48-12.52-4.06Z"/>
    </g>
    <path class="cls-3" d="M59.95,93.61l-3.28-23.81-25.63-8.32-19.19,16.52c-.58,.53-.83,1.24-.65,1.97,.19,.73,.73,1.29,1.51,1.54l44.12,14.32c.77,.25,1.59,.13,2.25-.33,.66-.46,.98-1.15,.88-1.9Z"/>
    <g>
      <path class="cls-1" d="M69.47,21.38l-14.47-4.7c-1.52-.49-3.21,.23-3.76,1.61h0c-.55,1.38,.25,2.91,1.78,3.41l14.47,4.7c1.52,.49,3.21-.23,3.76-1.61h0c.55-1.4-.25-2.91-1.78-3.41Z"/>
      <path class="cls-4" d="M67.28,26.93l-14.47-4.7c-1.85-.6-2.84-2.46-2.17-4.16s2.71-2.58,4.59-1.97l14.47,4.7c1.85,.6,2.84,2.46,2.17,4.16s-2.73,2.57-4.59,1.97Zm-12.5-9.7c-1.17-.38-2.5,.17-2.93,1.26s.19,2.27,1.39,2.66l14.47,4.7c1.17,.38,2.5-.17,2.93-1.26s-.19-2.27-1.39-2.66l-14.47-4.7Z"/>
    </g>
  </g>
  <ellipse class="cls-3" cx="44.01" cy="53.6" rx=".98" ry="1.16" transform="translate(-23.79 68.23) rotate(-62.79)"/>
  <ellipse class="cls-2" cx="46.92" cy="74.22" rx="1.87" ry="1.69"/>
  <ellipse class="cls-2" cx="52.04" cy="79.36" rx="1.74" ry="1.58"/>
  <ellipse class="cls-2" cx="34.7" cy="74.33" rx="4.23" ry="3.84"/>
  <ellipse class="cls-3" cx="69.34" cy="11.93" rx="1.25" ry="1.12" transform="translate(-.96 14.89) rotate(-12.18)"/>
  <ellipse class="cls-3" cx="55.8" cy="30.16" rx="1.58" ry="1.74" transform="translate(22.51 84.15) rotate(-86.73)"/>
  <ellipse class="cls-3" cx="49.93" cy="43.52" rx="1.58" ry="1.74" transform="translate(3.17 90.42) rotate(-86.16)"/>
  <ellipse class="cls-3" cx="55.52" cy="39.11" rx="1.12" ry="1.26" transform="translate(2.29 81.28) rotate(-73.55)"/>
  <ellipse class="cls-3" cx="65.73" cy="17.19" rx="1.24" ry="1.37" transform="translate(43.35 81.34) rotate(-85.43)"/>
  <ellipse class="cls-3" cx="59.38" cy="14.21" rx="1.02" ry=".88" transform="translate(-.84 24.31) rotate(-22.98)"/>
  <ellipse class="cls-2" cx="42.76" cy="78.39" rx="1.47" ry="1.33"/>
  <ellipse class="cls-3" cx="61.54" cy="32.99" rx="1" ry=".9" transform="translate(-5.57 13.72) rotate(-12.18)"/>
  <ellipse class="cls-3" cx="65.21" cy="7.73" rx="1" ry=".79" transform="translate(-.42 9.87) rotate(-8.63)"/>
  <ellipse class="cls-3" cx="51.08" cy="50.2" rx="1.13" ry="1.25" transform="translate(-4.06 95.9) rotate(-84.15)"/>
  <ellipse class="cls-3" cx="49.15" cy="58.79" rx="1" ry="1.35" transform="translate(-27.23 64.97) rotate(-54.73)"/>
  <ellipse class="cls-3" cx="63.25" cy="11.79" rx="1.13" ry="1.01" transform="translate(-1.07 13.37) rotate(-11.96)"/>
  <text class="cls-5" transform="translate(90.79 85.59) scale(1.1 1)"><tspan x="0" y="0">Distilled</tspan><tspan class="cls-3" x="254.42" y="0">.</tspan></text>
  <ellipse class="cls-3" cx="54.72" cy="46.03" rx=".76" ry=".9" transform="translate(-11.23 73.65) rotate(-62.79)"/>
  <ellipse class="cls-3" cx="59.99" cy="8.47" rx=".98" ry="1.16" transform="translate(25.02 57.94) rotate(-62.79)"/>
</svg>