<?xml version="1.0" encoding="UTF-8"?>
<svg id="Layer_1" data-name="Layer 1" xmlns="http://www.w3.org/2000/svg" viewBox="0 0 135.8 36.89">
  <defs>
    <style>
      .cls-1 {
        fill: #e7f6fd;
      }

      .cls-2 {
        fill: #fff;
      }

      .cls-3 {
        fill: #ff3de3;
      }

      .cls-4, .cls-5 {
        fill: #272428;
      }

      .cls-5 {
        stroke: #000;
        stroke-miterlimit: 10;
        stroke-width: .5px;
      }
    </style>
  </defs>
  <g>
    <path d="M31.6,27.44h-6.5s.02-17.05,.02-17.05h6.5c6.04,.01,8.81,2.98,8.8,7.51v1.54c0,4.68-2.25,8.01-8.82,8Zm4.4-9.33c0-2.94-1.38-4.35-4.32-4.36h-2.36s-.01,10.22-.01,10.22h2.36c3.08,0,4.32-1.55,4.33-4.65v-1.21Z"/>
    <path d="M42.5,13.55v-3.18s3.85,0,3.85,0v3.18s-3.85,0-3.85,0Zm0,13.88V15.26s3.81,0,3.81,0v12.17s-3.81,0-3.81,0Z"/>
    <path d="M54.98,27.7h-1.27c-3.27,0-5.49-1.65-5.49-4.38h3.96c0,.89,.43,1.52,1.84,1.52h.79c1.48,0,1.91-.62,1.91-1.06v-.13c0-.84-.43-1.19-2.05-1.19h-.6c-3.44,0-5.68-1.65-5.68-3.71v-.26c0-2.17,1.96-3.85,5.4-3.85h1.29c3.2,0,5.32,1.57,5.32,4.08h-4.04c0-.83-.57-1.2-1.57-1.2h-.55c-1.5,0-1.94,.34-1.94,1.01v.15c0,.58,.43,.89,1.86,.89h.84c3.46,0,5.73,1.54,5.73,3.84v.3c0,2.21-2.32,3.98-5.76,3.98Z"/>
    <path d="M68.15,17.56v5.22c0,1.43,.23,1.71,1.59,1.71h1.1s0,2.99,0,2.99h-2.22c-3.3,0-4.25-1.54-4.25-4.55v-5.37s-2.5,0-2.5,0v-2.77s2.51,0,2.51,0v-3.18s3.78,0,3.78,0v3.18s3.36,0,3.36,0v2.77s-3.37,0-3.37,0Z"/>
    <path d="M73.88,13.58v-3.18s3.85,0,3.85,0v3.18s-3.85,0-3.85,0Zm0,13.88V15.29s3.81,0,3.81,0v12.17s-3.81,0-3.81,0Z"/>
    <path d="M80.17,27.47l.02-17.06h3.58s-.02,17.07-.02,17.07h-3.58Z"/>
    <path d="M86.31,27.47l.02-17.06h3.58s-.02,17.07-.02,17.07h-3.58Z"/>
    <path d="M95.6,21.96v.33c0,1.39,.88,2.38,2.34,2.38h.6c1.43,0,2.03-.8,2.15-1.38h4.04c-.15,1.8-2.3,4.33-6.09,4.33h-.79c-3.61,0-6.11-2.58-6.11-5.72v-1.28c0-3.16,2.13-5.82,6.12-5.82h.74c3.65,0,6.16,2.19,6.16,5.81v1.36s-9.15,0-9.15,0Zm2.89-4.37h-.55c-1.24,0-2.22,.8-2.34,2.34h5.23c-.12-1.6-1.05-2.33-2.34-2.34Z"/>
    <path d="M115.06,27.48v-1.06c-.88,.76-1.98,1.19-3.18,1.19h-.5c-3.18,0-5.35-2.06-5.34-6.16v-.63c0-4.11,2.59-5.93,5.38-5.93h.5c1.17,0,2.17,.31,2.96,.85v-5.3s3.95,0,3.95,0l-.02,17.04h-3.75Zm-.11-6.91c0-1.82-1.14-2.45-2.48-2.45h-.38c-1.24,0-2.15,.88-2.15,2.81v.45c0,1.93,.86,2.97,2.12,2.97h.36c1.72,0,2.53-.8,2.53-2.7v-1.08Z"/>
    <path class="cls-3" d="M121.91,28.25v-3.77s4.16,0,4.16,0v3.77s-4.16,0-4.16,0Z"/>
  </g>
  <g>
    <g>
      <g>
        <path class="cls-1" d="M18.76,29.84l-2.63-12.58c-.12-.63-.08-1.28,.12-1.9l3.01-9.51-2.48-.27-2.51-.63-2.93,9.25c-.19,.6-.53,1.16-.99,1.63L.97,25.09c-.71,.72-.35,1.86,.67,2.11l7.56,2.25,7.7,1.93c1.05,.27,2.05-.56,1.86-1.54Z"/>
        <path class="cls-5" d="M16.88,31.38L1.48,27.53c-.56-.14-1-.53-1.16-1.04-.17-.51-.02-1.05,.37-1.45L10.3,15.55c.44-.45,.78-1.01,.96-1.59l3.07-9.69,5.24,1.31-3.07,9.68c-.18,.58-.22,1.21-.11,1.81l2.62,12.54c.1,.52-.1,1.05-.54,1.42-.44,.36-1.04,.5-1.61,.36ZM14.65,4.7l-2.96,9.34c-.2,.64-.58,1.26-1.07,1.76L.97,25.33c-.29,.29-.39,.7-.27,1.08,.12,.38,.44,.67,.86,.77l15.48,3.87c.42,.1,.86,0,1.18-.26,.32-.27,.48-.66,.4-1.05l-2.64-12.6c-.13-.66-.09-1.36,.12-2l2.96-9.34-4.39-1.1Z"/>
      </g>
      <path class="cls-3" d="M17.07,29.16l-1.4-6.91-7.66-1.96-5.31,5.19c-.16,.17-.22,.38-.15,.59,.07,.21,.24,.36,.47,.42l13.17,3.37c.23,.06,.47,0,.65-.14,.18-.15,.27-.35,.22-.57Z"/>
      <g>
        <path class="cls-1" d="M19.42,5.19l-4.69-1.17c-.49-.12-1.01,.14-1.16,.59h0c-.14,.45,.14,.92,.64,1.04l4.69,1.17c.49,.12,1.01-.14,1.16-.59h0c.14-.46-.14-.92-.64-1.04Z"/>
        <path class="cls-4" d="M19.19,7.07l-5.39-1.35c-.69-.17-1.1-.82-.89-1.46s.92-1.01,1.62-.83l5.39,1.35c.69,.17,1.1,.82,.89,1.46s-.93,1-1.62,.83Zm-4.57-2.91c-.39-.1-.81,.11-.92,.47s.11,.73,.51,.83l4.81,1.2c.39,.1,.81-.11,.92-.47s-.11-.73-.51-.83l-4.81-1.2Z"/>
      </g>
    </g>
    <ellipse class="cls-1" cx="11.63" cy="23.99" rx=".58" ry=".64" transform="translate(-14.55 28.99) rotate(-74.94)"/>
    <ellipse class="cls-2" cx="12.52" cy="26.48" rx=".54" ry=".6" transform="translate(-16.3 31.7) rotate(-74.94)"/>
    <ellipse class="cls-1" cx="7.24" cy="24.31" rx="1.31" ry="1.45" transform="translate(-18.11 24.98) rotate(-74.94)"/>
    <ellipse class="cls-2" cx="9.89" cy="26.37" rx=".46" ry=".5" transform="translate(-18.14 29.06) rotate(-74.94)"/>
    <ellipse class="cls-1" cx="9.79" cy="21.86" rx=".68" ry=".75" transform="translate(-13.86 25.63) rotate(-74.94)"/>
    <rect x="13.8" y="7.84" width="1.37" height=".34" rx=".15" ry=".15" transform="translate(2.58 -3.49) rotate(15.06)"/>
    <rect x="13.53" y="8.83" width="1.37" height=".34" rx=".15" ry=".15" transform="translate(2.83 -3.38) rotate(15.06)"/>
    <rect x="13.26" y="9.82" width="1.37" height=".34" rx=".15" ry=".15" transform="translate(3.08 -3.28) rotate(15.06)"/>
    <rect x="13" y="10.81" width="1.37" height=".34" rx=".15" ry=".15" transform="translate(3.32 -3.18) rotate(15.06)"/>
    <path class="cls-3" d="M19.78,3.34c0,.15-.06,.3-.17,.41-.11,.11-.25,.17-.4,.17-.15,0-.3-.06-.41-.17-.11-.11-.17-.25-.17-.4,0-.15,.06-.3,.17-.41,.11-.11,.25-.17,.4-.17,.15,0,.3,.06,.4,.17,.11,.11,.17,.25,.17,.4Zm-3.24-2.43c0,.24-.1,.47-.27,.65-.17,.17-.4,.27-.65,.27-.24,0-.47-.1-.65-.27-.17-.17-.27-.4-.27-.65,0-.24,.1-.47,.27-.65,.17-.17,.4-.27,.65-.27,.24,0,.47,.1,.65,.27,.17,.17,.27,.4,.27,.65h0Zm-.43-.54h0c-.11-.14-.29-.22-.47-.22-.09,0-.16,.07-.16,.16,0,.09,.07,.16,.16,.16,.09,0,.17,.04,.22,.1,.03,.04,.07,.06,.12,.06,.04,0,.07-.01,.1-.03,.03-.03,.05-.06,.06-.11s0-.08-.03-.12h0Zm2.57,1.53h0c0,.19-.07,.37-.21,.5-.13,.13-.31,.21-.5,.21-.19,0-.37-.07-.5-.21-.13-.13-.21-.31-.21-.5,0-.19,.08-.37,.21-.5s.31-.21,.5-.21c.19,0,.37,.07,.5,.21,.13,.13,.21,.31,.21,.5h0Zm-.37-.2h0c-.07-.12-.2-.19-.33-.19-.09,0-.16,.07-.16,.16s.07,.16,.16,.16c.03,0,.05,.02,.06,.04,.03,.05,.08,.08,.14,.08,.03,0,.05,0,.08-.02,.08-.04,.1-.14,.06-.22h0Zm1.97,.77h0s-.1,.02-.13,.05c-.03,.03-.05,.08-.05,.13s.02,.1,.05,.13c.03,.03,.08,.05,.13,.05s.1-.02,.13-.05,.05-.08,.05-.13-.02-.1-.05-.13-.08-.05-.13-.05h0Zm-1.83-1.78s.08-.02,.09-.06c.02-.04,0-.08-.02-.11-.03-.03-.07-.04-.11-.02-.04,.02-.06,.05-.06,.09,0,.06,.05,.1,.1,.1Zm-.6-.2c.06,0,.12-.04,.15-.1,.02-.06,.01-.13-.03-.18-.05-.05-.11-.06-.17-.03-.06,.02-.1,.08-.1,.15,0,.04,.02,.08,.05,.11s.07,.05,.11,.05h0Zm.13,2.56c-.05,0-.1,.03-.12,.08s0,.11,.03,.15c.04,.04,.1,.05,.15,.03s.08-.07,.08-.12c0-.04-.01-.07-.04-.09-.02-.02-.06-.04-.09-.04h0Z"/>
    <path class="cls-3" d="M11.52,18.45c0,.18-.07,.35-.19,.47-.12,.12-.29,.2-.47,.2-.18,0-.35-.07-.47-.19-.12-.12-.2-.29-.2-.47,0-.18,.07-.35,.19-.47,.12-.12,.29-.2,.47-.2,.18,0,.35,.07,.47,.19,.12,.12,.2,.29,.2,.47Zm2.79-1.2c0,.23-.1,.45-.27,.6-.17,.16-.39,.24-.62,.24-.23,0-.45-.1-.6-.27-.16-.17-.24-.39-.24-.62,0-.23,.1-.45,.27-.6,.17-.16,.39-.24,.62-.24,.23,0,.44,.1,.6,.27,.16,.17,.24,.39,.24,.62h0Zm-.39-.52h0c-.1-.14-.26-.22-.43-.22-.08,0-.15,.06-.15,.14,0,.08,.06,.15,.14,.15,.08,0,.16,.04,.21,.1,.03,.04,.07,.06,.11,.06,.03,0,.07,0,.09-.03,.03-.02,.05-.06,.06-.1s0-.08-.03-.11h0Zm-.28,3.38h0c.06,.06,.09,.14,.09,.22,0,.08-.03,.16-.09,.22-.06,.06-.14,.09-.22,.09-.08,0-.16-.03-.22-.09-.06-.06-.09-.14-.09-.22s.03-.16,.09-.22c.06-.06,.14-.09,.22-.09,.08,0,.16,.03,.22,.09h0Zm-.18,.05h0c-.06-.02-.12,0-.17,.04-.03,.03-.03,.07,0,.1s.07,.03,.1,0c0,0,.02-.01,.03,0,.02,0,.05,0,.07-.02,0,0,.01-.02,.02-.03,0-.04-.01-.08-.05-.09h0Zm1.12-.94h0s-.06,.09-.06,.15c0,.06,.02,.11,.06,.15s.09,.06,.15,.06c.06,0,.11-.02,.15-.06s.06-.09,.06-.15-.02-.11-.06-.15-.09-.06-.15-.06-.11,.02-.15,.06h0Zm-1.77,.44s.04-.08,.03-.13c-.02-.04-.06-.07-.11-.07-.05,0-.09,.03-.11,.07-.02,.04,0,.09,.03,.13,.05,.05,.12,.05,.17,0Zm-.66,.33c.05-.05,.07-.13,.04-.2-.03-.07-.1-.12-.17-.12-.08,0-.14,.05-.17,.11-.03,.07-.01,.15,.04,.2,.03,.04,.08,.05,.13,.05s.1-.02,.13-.05h0Zm2.21,1.2s-.06,.11-.03,.17,.08,.1,.14,.1c.06,0,.12-.04,.14-.1s.01-.12-.03-.17c-.03-.03-.07-.05-.11-.05-.04,0-.08,.02-.11,.05h0Z"/>
  </g>
</svg>